G04 #@! TF.GenerationSoftware,KiCad,Pcbnew,5.0.2+dfsg1-1~bpo9+1*
G04 #@! TF.CreationDate,2018-12-22T15:32:15+00:00*
G04 #@! TF.ProjectId,arduino_controller,61726475-696e-46f5-9f63-6f6e74726f6c,rev?*
G04 #@! TF.SameCoordinates,Original*
G04 #@! TF.FileFunction,Copper,L2,Bot*
G04 #@! TF.FilePolarity,Positive*
%FSLAX46Y46*%
G04 Gerber Fmt 4.6, Leading zero omitted, Abs format (unit mm)*
G04 Created by KiCad (PCBNEW 5.0.2+dfsg1-1~bpo9+1) date Sat 22 Dec 2018 15:32:15 GMT*
%MOMM*%
%LPD*%
G01*
G04 APERTURE LIST*
G04 #@! TA.AperFunction,ComponentPad*
%ADD10R,1.600000X1.600000*%
G04 #@! TD*
G04 #@! TA.AperFunction,ComponentPad*
%ADD11C,1.600000*%
G04 #@! TD*
G04 #@! TA.AperFunction,ComponentPad*
%ADD12C,3.500000*%
G04 #@! TD*
G04 #@! TA.AperFunction,ViaPad*
%ADD13C,0.800000*%
G04 #@! TD*
G04 #@! TA.AperFunction,Conductor*
%ADD14C,0.250000*%
G04 #@! TD*
G04 APERTURE END LIST*
D10*
G04 #@! TO.P,U1,1*
G04 #@! TO.N,Net-(U1-Pad1)*
X57505500Y-152509500D03*
D11*
G04 #@! TO.P,U1,2*
G04 #@! TO.N,Net-(U1-Pad2)*
X57505500Y-155049500D03*
G04 #@! TO.P,U1,3*
G04 #@! TO.N,Net-(U1-Pad3)*
X57505500Y-157589500D03*
G04 #@! TO.P,U1,4*
G04 #@! TO.N,Net-(U1-Pad4)*
X57505500Y-160129500D03*
G04 #@! TO.P,U1,5*
G04 #@! TO.N,Net-(SW2-Pad1)*
X57505500Y-162669500D03*
G04 #@! TO.P,U1,6*
G04 #@! TO.N,Net-(SW9-Pad1)*
X57505500Y-165209500D03*
G04 #@! TO.P,U1,7*
G04 #@! TO.N,Net-(SW3-Pad1)*
X57505500Y-167749500D03*
G04 #@! TO.P,U1,8*
G04 #@! TO.N,Net-(SW1-Pad1)*
X57505500Y-170289500D03*
G04 #@! TO.P,U1,9*
G04 #@! TO.N,Net-(SW4-Pad1)*
X57505500Y-172829500D03*
G04 #@! TO.P,U1,10*
G04 #@! TO.N,Net-(SW5-Pad1)*
X57505500Y-175369500D03*
G04 #@! TO.P,U1,11*
G04 #@! TO.N,Net-(SW6-Pad1)*
X57505500Y-177909500D03*
G04 #@! TO.P,U1,12*
G04 #@! TO.N,Net-(SW7-Pad1)*
X57505500Y-180449500D03*
G04 #@! TO.P,U1,13*
G04 #@! TO.N,Net-(SW10-Pad1)*
X42265500Y-180449500D03*
G04 #@! TO.P,U1,14*
G04 #@! TO.N,Net-(SW8-Pad1)*
X42265500Y-177909500D03*
G04 #@! TO.P,U1,15*
G04 #@! TO.N,Net-(SW11-Pad1)*
X42265500Y-175369500D03*
G04 #@! TO.P,U1,16*
G04 #@! TO.N,Net-(SW12-Pad1)*
X42265500Y-172829500D03*
G04 #@! TO.P,U1,17*
G04 #@! TO.N,Net-(U1-Pad17)*
X42265500Y-170289500D03*
G04 #@! TO.P,U1,18*
G04 #@! TO.N,Net-(U1-Pad18)*
X42265500Y-167749500D03*
G04 #@! TO.P,U1,19*
G04 #@! TO.N,Net-(U1-Pad19)*
X42265500Y-165209500D03*
G04 #@! TO.P,U1,20*
G04 #@! TO.N,Net-(U1-Pad20)*
X42265500Y-162669500D03*
G04 #@! TO.P,U1,21*
G04 #@! TO.N,Net-(U1-Pad21)*
X42265500Y-160129500D03*
G04 #@! TO.P,U1,22*
G04 #@! TO.N,Net-(U1-Pad22)*
X42265500Y-157589500D03*
G04 #@! TO.P,U1,23*
G04 #@! TO.N,Net-(SW1-Pad2)*
X42265500Y-155049500D03*
G04 #@! TO.P,U1,24*
G04 #@! TO.N,Net-(U1-Pad24)*
X42265500Y-152509500D03*
G04 #@! TD*
D12*
G04 #@! TO.P,U2,1*
G04 #@! TO.N,Net-(U2-Pad1)*
X29972000Y-151701500D03*
G04 #@! TD*
G04 #@! TO.P,U3,1*
G04 #@! TO.N,Net-(U3-Pad1)*
X17526000Y-186944000D03*
G04 #@! TD*
G04 #@! TO.P,U4,1*
G04 #@! TO.N,Net-(U4-Pad1)*
X70802500Y-151701500D03*
G04 #@! TD*
G04 #@! TO.P,U5,1*
G04 #@! TO.N,Net-(U5-Pad1)*
X83248500Y-186944000D03*
G04 #@! TD*
D11*
G04 #@! TO.P,SW11,2*
G04 #@! TO.N,Net-(SW1-Pad2)*
X22669500Y-151892000D03*
G04 #@! TO.P,SW11,1*
G04 #@! TO.N,Net-(SW11-Pad1)*
X20129500Y-151892000D03*
G04 #@! TD*
G04 #@! TO.P,SW12,1*
G04 #@! TO.N,Net-(SW12-Pad1)*
X78105000Y-151892000D03*
G04 #@! TO.P,SW12,2*
G04 #@! TO.N,Net-(SW1-Pad2)*
X80645000Y-151892000D03*
G04 #@! TD*
D13*
G04 #@! TO.N,Net-(SW1-Pad2)*
X19875500Y-160020000D03*
X80137000Y-158813500D03*
G04 #@! TO.N,Net-(SW4-Pad1)*
X48704500Y-184658000D03*
G04 #@! TO.N,Net-(SW12-Pad1)*
X48323500Y-162814000D03*
G04 #@! TD*
D14*
G04 #@! TO.N,Net-(SW1-Pad2)*
X24846000Y-155049500D02*
X19875500Y-160020000D01*
X42265500Y-155049500D02*
X24846000Y-155049500D01*
X43396870Y-155049500D02*
X48205370Y-150241000D01*
X42265500Y-155049500D02*
X43396870Y-155049500D01*
X48205370Y-150241000D02*
X61976000Y-150241000D01*
X61976000Y-150241000D02*
X68199000Y-156464000D01*
X68199000Y-156464000D02*
X77787500Y-156464000D01*
X77787500Y-156464000D02*
X80137000Y-158813500D01*
G04 #@! TO.N,Net-(SW4-Pad1)*
X56705501Y-173629499D02*
X57505500Y-172829500D01*
X49104499Y-181230501D02*
X56705501Y-173629499D01*
X49104499Y-184258001D02*
X49104499Y-181230501D01*
X48704500Y-184658000D02*
X49104499Y-184258001D01*
G04 #@! TO.N,Net-(SW12-Pad1)*
X47923501Y-167171499D02*
X43065499Y-172029501D01*
X43065499Y-172029501D02*
X42265500Y-172829500D01*
X47923501Y-163213999D02*
X47923501Y-167171499D01*
X48323500Y-162814000D02*
X47923501Y-163213999D01*
G04 #@! TD*
M02*
