G04 #@! TF.GenerationSoftware,KiCad,Pcbnew,5.0.2+dfsg1-1~bpo9+1*
G04 #@! TF.CreationDate,2018-12-22T15:32:15+00:00*
G04 #@! TF.ProjectId,arduino_controller,61726475-696e-46f5-9f63-6f6e74726f6c,rev?*
G04 #@! TF.SameCoordinates,Original*
G04 #@! TF.FileFunction,Legend,Bot*
G04 #@! TF.FilePolarity,Positive*
%FSLAX46Y46*%
G04 Gerber Fmt 4.6, Leading zero omitted, Abs format (unit mm)*
G04 Created by KiCad (PCBNEW 5.0.2+dfsg1-1~bpo9+1) date Sat 22 Dec 2018 15:32:15 GMT*
%MOMM*%
%LPD*%
G01*
G04 APERTURE LIST*
%ADD10C,0.300000*%
%ADD11C,0.150000*%
G04 APERTURE END LIST*
D10*
X51899428Y-163925571D02*
X51828000Y-163997000D01*
X51756571Y-164139857D01*
X51756571Y-164497000D01*
X51828000Y-164639857D01*
X51899428Y-164711285D01*
X52042285Y-164782714D01*
X52185142Y-164782714D01*
X52399428Y-164711285D01*
X53256571Y-163854142D01*
X53256571Y-164782714D01*
X51756571Y-165711285D02*
X51756571Y-165854142D01*
X51828000Y-165997000D01*
X51899428Y-166068428D01*
X52042285Y-166139857D01*
X52328000Y-166211285D01*
X52685142Y-166211285D01*
X52970857Y-166139857D01*
X53113714Y-166068428D01*
X53185142Y-165997000D01*
X53256571Y-165854142D01*
X53256571Y-165711285D01*
X53185142Y-165568428D01*
X53113714Y-165497000D01*
X52970857Y-165425571D01*
X52685142Y-165354142D01*
X52328000Y-165354142D01*
X52042285Y-165425571D01*
X51899428Y-165497000D01*
X51828000Y-165568428D01*
X51756571Y-165711285D01*
X53256571Y-167639857D02*
X53256571Y-166782714D01*
X53256571Y-167211285D02*
X51756571Y-167211285D01*
X51970857Y-167068428D01*
X52113714Y-166925571D01*
X52185142Y-166782714D01*
X52399428Y-168497000D02*
X52328000Y-168354142D01*
X52256571Y-168282714D01*
X52113714Y-168211285D01*
X52042285Y-168211285D01*
X51899428Y-168282714D01*
X51828000Y-168354142D01*
X51756571Y-168497000D01*
X51756571Y-168782714D01*
X51828000Y-168925571D01*
X51899428Y-168997000D01*
X52042285Y-169068428D01*
X52113714Y-169068428D01*
X52256571Y-168997000D01*
X52328000Y-168925571D01*
X52399428Y-168782714D01*
X52399428Y-168497000D01*
X52470857Y-168354142D01*
X52542285Y-168282714D01*
X52685142Y-168211285D01*
X52970857Y-168211285D01*
X53113714Y-168282714D01*
X53185142Y-168354142D01*
X53256571Y-168497000D01*
X53256571Y-168782714D01*
X53185142Y-168925571D01*
X53113714Y-168997000D01*
X52970857Y-169068428D01*
X52685142Y-169068428D01*
X52542285Y-168997000D01*
X52470857Y-168925571D01*
X52399428Y-168782714D01*
X46057357Y-160104142D02*
X46057357Y-159604142D01*
X46843071Y-159604142D02*
X45343071Y-159604142D01*
X45343071Y-160318428D01*
X46843071Y-161532714D02*
X46057357Y-161532714D01*
X45914500Y-161461285D01*
X45843071Y-161318428D01*
X45843071Y-161032714D01*
X45914500Y-160889857D01*
X46771642Y-161532714D02*
X46843071Y-161389857D01*
X46843071Y-161032714D01*
X46771642Y-160889857D01*
X46628785Y-160818428D01*
X46485928Y-160818428D01*
X46343071Y-160889857D01*
X46271642Y-161032714D01*
X46271642Y-161389857D01*
X46200214Y-161532714D01*
X46771642Y-162889857D02*
X46843071Y-162747000D01*
X46843071Y-162461285D01*
X46771642Y-162318428D01*
X46700214Y-162247000D01*
X46557357Y-162175571D01*
X46128785Y-162175571D01*
X45985928Y-162247000D01*
X45914500Y-162318428D01*
X45843071Y-162461285D01*
X45843071Y-162747000D01*
X45914500Y-162889857D01*
X46771642Y-164104142D02*
X46843071Y-163961285D01*
X46843071Y-163675571D01*
X46771642Y-163532714D01*
X46628785Y-163461285D01*
X46057357Y-163461285D01*
X45914500Y-163532714D01*
X45843071Y-163675571D01*
X45843071Y-163961285D01*
X45914500Y-164104142D01*
X46057357Y-164175571D01*
X46200214Y-164175571D01*
X46343071Y-163461285D01*
X46843071Y-165032714D02*
X46771642Y-164889857D01*
X46628785Y-164818428D01*
X45343071Y-164818428D01*
X46771642Y-166175571D02*
X46843071Y-166032714D01*
X46843071Y-165747000D01*
X46771642Y-165604142D01*
X46628785Y-165532714D01*
X46057357Y-165532714D01*
X45914500Y-165604142D01*
X45843071Y-165747000D01*
X45843071Y-166032714D01*
X45914500Y-166175571D01*
X46057357Y-166247000D01*
X46200214Y-166247000D01*
X46343071Y-165532714D01*
X46771642Y-166818428D02*
X46843071Y-166961285D01*
X46843071Y-167247000D01*
X46771642Y-167389857D01*
X46628785Y-167461285D01*
X46557357Y-167461285D01*
X46414500Y-167389857D01*
X46343071Y-167247000D01*
X46343071Y-167032714D01*
X46271642Y-166889857D01*
X46128785Y-166818428D01*
X46057357Y-166818428D01*
X45914500Y-166889857D01*
X45843071Y-167032714D01*
X45843071Y-167247000D01*
X45914500Y-167389857D01*
X46771642Y-168032714D02*
X46843071Y-168175571D01*
X46843071Y-168461285D01*
X46771642Y-168604142D01*
X46628785Y-168675571D01*
X46557357Y-168675571D01*
X46414500Y-168604142D01*
X46343071Y-168461285D01*
X46343071Y-168247000D01*
X46271642Y-168104142D01*
X46128785Y-168032714D01*
X46057357Y-168032714D01*
X45914500Y-168104142D01*
X45843071Y-168247000D01*
X45843071Y-168461285D01*
X45914500Y-168604142D01*
X45843071Y-169104142D02*
X45843071Y-169675571D01*
X45343071Y-169318428D02*
X46628785Y-169318428D01*
X46771642Y-169389857D01*
X46843071Y-169532714D01*
X46843071Y-169675571D01*
X46771642Y-170747000D02*
X46843071Y-170604142D01*
X46843071Y-170318428D01*
X46771642Y-170175571D01*
X46628785Y-170104142D01*
X46057357Y-170104142D01*
X45914500Y-170175571D01*
X45843071Y-170318428D01*
X45843071Y-170604142D01*
X45914500Y-170747000D01*
X46057357Y-170818428D01*
X46200214Y-170818428D01*
X46343071Y-170104142D01*
X46771642Y-172104142D02*
X46843071Y-171961285D01*
X46843071Y-171675571D01*
X46771642Y-171532714D01*
X46700214Y-171461285D01*
X46557357Y-171389857D01*
X46128785Y-171389857D01*
X45985928Y-171461285D01*
X45914500Y-171532714D01*
X45843071Y-171675571D01*
X45843071Y-171961285D01*
X45914500Y-172104142D01*
X46843071Y-172747000D02*
X45343071Y-172747000D01*
X46843071Y-173389857D02*
X46057357Y-173389857D01*
X45914500Y-173318428D01*
X45843071Y-173175571D01*
X45843071Y-172961285D01*
X45914500Y-172818428D01*
X45985928Y-172747000D01*
D11*
G04 #@! TO.C,U1*
X58775500Y-151239500D02*
X58775500Y-181719500D01*
X58775500Y-151239500D02*
X53695500Y-151239500D01*
X53695500Y-151239500D02*
X53695500Y-148699500D01*
X53695500Y-148699500D02*
X46075500Y-148699500D01*
X46075500Y-148699500D02*
X46075500Y-151239500D01*
X46075500Y-151239500D02*
X40995500Y-151239500D01*
X40995500Y-151239500D02*
X40995500Y-181719500D01*
X40995500Y-181719500D02*
X58775500Y-181719500D01*
G04 #@! TD*
M02*
