G04 #@! TF.GenerationSoftware,KiCad,Pcbnew,5.0.2+dfsg1-1~bpo9+1*
G04 #@! TF.CreationDate,2018-12-22T15:32:15+00:00*
G04 #@! TF.ProjectId,arduino_controller,61726475-696e-46f5-9f63-6f6e74726f6c,rev?*
G04 #@! TF.SameCoordinates,Original*
G04 #@! TF.FileFunction,Legend,Top*
G04 #@! TF.FilePolarity,Positive*
%FSLAX46Y46*%
G04 Gerber Fmt 4.6, Leading zero omitted, Abs format (unit mm)*
G04 Created by KiCad (PCBNEW 5.0.2+dfsg1-1~bpo9+1) date Sat 22 Dec 2018 15:32:15 GMT*
%MOMM*%
%LPD*%
G01*
G04 APERTURE LIST*
%ADD10C,0.300000*%
%ADD11C,0.150000*%
G04 APERTURE END LIST*
D10*
X43089571Y-184979571D02*
X44089571Y-184979571D01*
X43089571Y-186479571D01*
X44089571Y-186479571D01*
X45232428Y-186408142D02*
X45089571Y-186479571D01*
X44803857Y-186479571D01*
X44661000Y-186408142D01*
X44589571Y-186265285D01*
X44589571Y-185693857D01*
X44661000Y-185551000D01*
X44803857Y-185479571D01*
X45089571Y-185479571D01*
X45232428Y-185551000D01*
X45303857Y-185693857D01*
X45303857Y-185836714D01*
X44589571Y-185979571D01*
X45946714Y-186479571D02*
X45946714Y-185479571D01*
X45946714Y-185765285D02*
X46018142Y-185622428D01*
X46089571Y-185551000D01*
X46232428Y-185479571D01*
X46375285Y-185479571D01*
X47089571Y-186479571D02*
X46946714Y-186408142D01*
X46875285Y-186336714D01*
X46803857Y-186193857D01*
X46803857Y-185765285D01*
X46875285Y-185622428D01*
X46946714Y-185551000D01*
X47089571Y-185479571D01*
X47303857Y-185479571D01*
X47446714Y-185551000D01*
X47518142Y-185622428D01*
X47589571Y-185765285D01*
X47589571Y-186193857D01*
X47518142Y-186336714D01*
X47446714Y-186408142D01*
X47303857Y-186479571D01*
X47089571Y-186479571D01*
X47875285Y-186622428D02*
X49018142Y-186622428D01*
X50018142Y-186408142D02*
X49875285Y-186479571D01*
X49589571Y-186479571D01*
X49446714Y-186408142D01*
X49375285Y-186336714D01*
X49303857Y-186193857D01*
X49303857Y-185765285D01*
X49375285Y-185622428D01*
X49446714Y-185551000D01*
X49589571Y-185479571D01*
X49875285Y-185479571D01*
X50018142Y-185551000D01*
X50875285Y-186479571D02*
X50732428Y-186408142D01*
X50661000Y-186336714D01*
X50589571Y-186193857D01*
X50589571Y-185765285D01*
X50661000Y-185622428D01*
X50732428Y-185551000D01*
X50875285Y-185479571D01*
X51089571Y-185479571D01*
X51232428Y-185551000D01*
X51303857Y-185622428D01*
X51375285Y-185765285D01*
X51375285Y-186193857D01*
X51303857Y-186336714D01*
X51232428Y-186408142D01*
X51089571Y-186479571D01*
X50875285Y-186479571D01*
X52018142Y-185479571D02*
X52018142Y-186479571D01*
X52018142Y-185622428D02*
X52089571Y-185551000D01*
X52232428Y-185479571D01*
X52446714Y-185479571D01*
X52589571Y-185551000D01*
X52661000Y-185693857D01*
X52661000Y-186479571D01*
X53161000Y-185479571D02*
X53732428Y-185479571D01*
X53375285Y-184979571D02*
X53375285Y-186265285D01*
X53446714Y-186408142D01*
X53589571Y-186479571D01*
X53732428Y-186479571D01*
X54232428Y-186479571D02*
X54232428Y-185479571D01*
X54232428Y-185765285D02*
X54303857Y-185622428D01*
X54375285Y-185551000D01*
X54518142Y-185479571D01*
X54661000Y-185479571D01*
X55375285Y-186479571D02*
X55232428Y-186408142D01*
X55161000Y-186336714D01*
X55089571Y-186193857D01*
X55089571Y-185765285D01*
X55161000Y-185622428D01*
X55232428Y-185551000D01*
X55375285Y-185479571D01*
X55589571Y-185479571D01*
X55732428Y-185551000D01*
X55803857Y-185622428D01*
X55875285Y-185765285D01*
X55875285Y-186193857D01*
X55803857Y-186336714D01*
X55732428Y-186408142D01*
X55589571Y-186479571D01*
X55375285Y-186479571D01*
X56732428Y-186479571D02*
X56589571Y-186408142D01*
X56518142Y-186265285D01*
X56518142Y-184979571D01*
X51899428Y-169004928D02*
X51828000Y-168933500D01*
X51756571Y-168790642D01*
X51756571Y-168433500D01*
X51828000Y-168290642D01*
X51899428Y-168219214D01*
X52042285Y-168147785D01*
X52185142Y-168147785D01*
X52399428Y-168219214D01*
X53256571Y-169076357D01*
X53256571Y-168147785D01*
X51756571Y-167219214D02*
X51756571Y-167076357D01*
X51828000Y-166933500D01*
X51899428Y-166862071D01*
X52042285Y-166790642D01*
X52328000Y-166719214D01*
X52685142Y-166719214D01*
X52970857Y-166790642D01*
X53113714Y-166862071D01*
X53185142Y-166933500D01*
X53256571Y-167076357D01*
X53256571Y-167219214D01*
X53185142Y-167362071D01*
X53113714Y-167433500D01*
X52970857Y-167504928D01*
X52685142Y-167576357D01*
X52328000Y-167576357D01*
X52042285Y-167504928D01*
X51899428Y-167433500D01*
X51828000Y-167362071D01*
X51756571Y-167219214D01*
X53256571Y-165290642D02*
X53256571Y-166147785D01*
X53256571Y-165719214D02*
X51756571Y-165719214D01*
X51970857Y-165862071D01*
X52113714Y-166004928D01*
X52185142Y-166147785D01*
X52399428Y-164433500D02*
X52328000Y-164576357D01*
X52256571Y-164647785D01*
X52113714Y-164719214D01*
X52042285Y-164719214D01*
X51899428Y-164647785D01*
X51828000Y-164576357D01*
X51756571Y-164433500D01*
X51756571Y-164147785D01*
X51828000Y-164004928D01*
X51899428Y-163933500D01*
X52042285Y-163862071D01*
X52113714Y-163862071D01*
X52256571Y-163933500D01*
X52328000Y-164004928D01*
X52399428Y-164147785D01*
X52399428Y-164433500D01*
X52470857Y-164576357D01*
X52542285Y-164647785D01*
X52685142Y-164719214D01*
X52970857Y-164719214D01*
X53113714Y-164647785D01*
X53185142Y-164576357D01*
X53256571Y-164433500D01*
X53256571Y-164147785D01*
X53185142Y-164004928D01*
X53113714Y-163933500D01*
X52970857Y-163862071D01*
X52685142Y-163862071D01*
X52542285Y-163933500D01*
X52470857Y-164004928D01*
X52399428Y-164147785D01*
X46057357Y-172953357D02*
X46057357Y-173453357D01*
X46843071Y-173453357D02*
X45343071Y-173453357D01*
X45343071Y-172739071D01*
X46843071Y-171524785D02*
X46057357Y-171524785D01*
X45914500Y-171596214D01*
X45843071Y-171739071D01*
X45843071Y-172024785D01*
X45914500Y-172167642D01*
X46771642Y-171524785D02*
X46843071Y-171667642D01*
X46843071Y-172024785D01*
X46771642Y-172167642D01*
X46628785Y-172239071D01*
X46485928Y-172239071D01*
X46343071Y-172167642D01*
X46271642Y-172024785D01*
X46271642Y-171667642D01*
X46200214Y-171524785D01*
X46771642Y-170167642D02*
X46843071Y-170310500D01*
X46843071Y-170596214D01*
X46771642Y-170739071D01*
X46700214Y-170810500D01*
X46557357Y-170881928D01*
X46128785Y-170881928D01*
X45985928Y-170810500D01*
X45914500Y-170739071D01*
X45843071Y-170596214D01*
X45843071Y-170310500D01*
X45914500Y-170167642D01*
X46771642Y-168953357D02*
X46843071Y-169096214D01*
X46843071Y-169381928D01*
X46771642Y-169524785D01*
X46628785Y-169596214D01*
X46057357Y-169596214D01*
X45914500Y-169524785D01*
X45843071Y-169381928D01*
X45843071Y-169096214D01*
X45914500Y-168953357D01*
X46057357Y-168881928D01*
X46200214Y-168881928D01*
X46343071Y-169596214D01*
X46843071Y-168024785D02*
X46771642Y-168167642D01*
X46628785Y-168239071D01*
X45343071Y-168239071D01*
X46771642Y-166881928D02*
X46843071Y-167024785D01*
X46843071Y-167310500D01*
X46771642Y-167453357D01*
X46628785Y-167524785D01*
X46057357Y-167524785D01*
X45914500Y-167453357D01*
X45843071Y-167310500D01*
X45843071Y-167024785D01*
X45914500Y-166881928D01*
X46057357Y-166810500D01*
X46200214Y-166810500D01*
X46343071Y-167524785D01*
X46771642Y-166239071D02*
X46843071Y-166096214D01*
X46843071Y-165810500D01*
X46771642Y-165667642D01*
X46628785Y-165596214D01*
X46557357Y-165596214D01*
X46414500Y-165667642D01*
X46343071Y-165810500D01*
X46343071Y-166024785D01*
X46271642Y-166167642D01*
X46128785Y-166239071D01*
X46057357Y-166239071D01*
X45914500Y-166167642D01*
X45843071Y-166024785D01*
X45843071Y-165810500D01*
X45914500Y-165667642D01*
X46771642Y-165024785D02*
X46843071Y-164881928D01*
X46843071Y-164596214D01*
X46771642Y-164453357D01*
X46628785Y-164381928D01*
X46557357Y-164381928D01*
X46414500Y-164453357D01*
X46343071Y-164596214D01*
X46343071Y-164810500D01*
X46271642Y-164953357D01*
X46128785Y-165024785D01*
X46057357Y-165024785D01*
X45914500Y-164953357D01*
X45843071Y-164810500D01*
X45843071Y-164596214D01*
X45914500Y-164453357D01*
X45843071Y-163953357D02*
X45843071Y-163381928D01*
X45343071Y-163739071D02*
X46628785Y-163739071D01*
X46771642Y-163667642D01*
X46843071Y-163524785D01*
X46843071Y-163381928D01*
X46771642Y-162310500D02*
X46843071Y-162453357D01*
X46843071Y-162739071D01*
X46771642Y-162881928D01*
X46628785Y-162953357D01*
X46057357Y-162953357D01*
X45914500Y-162881928D01*
X45843071Y-162739071D01*
X45843071Y-162453357D01*
X45914500Y-162310500D01*
X46057357Y-162239071D01*
X46200214Y-162239071D01*
X46343071Y-162953357D01*
X46771642Y-160953357D02*
X46843071Y-161096214D01*
X46843071Y-161381928D01*
X46771642Y-161524785D01*
X46700214Y-161596214D01*
X46557357Y-161667642D01*
X46128785Y-161667642D01*
X45985928Y-161596214D01*
X45914500Y-161524785D01*
X45843071Y-161381928D01*
X45843071Y-161096214D01*
X45914500Y-160953357D01*
X46843071Y-160310500D02*
X45343071Y-160310500D01*
X46843071Y-159667642D02*
X46057357Y-159667642D01*
X45914500Y-159739071D01*
X45843071Y-159881928D01*
X45843071Y-160096214D01*
X45914500Y-160239071D01*
X45985928Y-160310500D01*
X17990285Y-152570571D02*
X17276000Y-152570571D01*
X17276000Y-151070571D01*
X31873428Y-180439142D02*
X32087714Y-180510571D01*
X32444857Y-180510571D01*
X32587714Y-180439142D01*
X32659142Y-180367714D01*
X32730571Y-180224857D01*
X32730571Y-180082000D01*
X32659142Y-179939142D01*
X32587714Y-179867714D01*
X32444857Y-179796285D01*
X32159142Y-179724857D01*
X32016285Y-179653428D01*
X31944857Y-179582000D01*
X31873428Y-179439142D01*
X31873428Y-179296285D01*
X31944857Y-179153428D01*
X32016285Y-179082000D01*
X32159142Y-179010571D01*
X32516285Y-179010571D01*
X32730571Y-179082000D01*
X33944857Y-180439142D02*
X33802000Y-180510571D01*
X33516285Y-180510571D01*
X33373428Y-180439142D01*
X33302000Y-180296285D01*
X33302000Y-179724857D01*
X33373428Y-179582000D01*
X33516285Y-179510571D01*
X33802000Y-179510571D01*
X33944857Y-179582000D01*
X34016285Y-179724857D01*
X34016285Y-179867714D01*
X33302000Y-180010571D01*
X34873428Y-180510571D02*
X34730571Y-180439142D01*
X34659142Y-180296285D01*
X34659142Y-179010571D01*
X36016285Y-180439142D02*
X35873428Y-180510571D01*
X35587714Y-180510571D01*
X35444857Y-180439142D01*
X35373428Y-180296285D01*
X35373428Y-179724857D01*
X35444857Y-179582000D01*
X35587714Y-179510571D01*
X35873428Y-179510571D01*
X36016285Y-179582000D01*
X36087714Y-179724857D01*
X36087714Y-179867714D01*
X35373428Y-180010571D01*
X37373428Y-180439142D02*
X37230571Y-180510571D01*
X36944857Y-180510571D01*
X36802000Y-180439142D01*
X36730571Y-180367714D01*
X36659142Y-180224857D01*
X36659142Y-179796285D01*
X36730571Y-179653428D01*
X36802000Y-179582000D01*
X36944857Y-179510571D01*
X37230571Y-179510571D01*
X37373428Y-179582000D01*
X37802000Y-179510571D02*
X38373428Y-179510571D01*
X38016285Y-179010571D02*
X38016285Y-180296285D01*
X38087714Y-180439142D01*
X38230571Y-180510571D01*
X38373428Y-180510571D01*
X27308928Y-168656071D02*
X26880357Y-169798928D01*
X26451785Y-168656071D01*
X27876571Y-167318571D02*
X29019428Y-167747142D01*
X27876571Y-168175714D01*
X25780928Y-168151928D02*
X24638071Y-167723357D01*
X25780928Y-167294785D01*
X26412071Y-166814428D02*
X26840642Y-165671571D01*
X27269214Y-166814428D01*
X83839785Y-152570571D02*
X83339785Y-151856285D01*
X82982642Y-152570571D02*
X82982642Y-151070571D01*
X83554071Y-151070571D01*
X83696928Y-151142000D01*
X83768357Y-151213428D01*
X83839785Y-151356285D01*
X83839785Y-151570571D01*
X83768357Y-151713428D01*
X83696928Y-151784857D01*
X83554071Y-151856285D01*
X82982642Y-151856285D01*
X62023928Y-180439142D02*
X62238214Y-180510571D01*
X62595357Y-180510571D01*
X62738214Y-180439142D01*
X62809642Y-180367714D01*
X62881071Y-180224857D01*
X62881071Y-180082000D01*
X62809642Y-179939142D01*
X62738214Y-179867714D01*
X62595357Y-179796285D01*
X62309642Y-179724857D01*
X62166785Y-179653428D01*
X62095357Y-179582000D01*
X62023928Y-179439142D01*
X62023928Y-179296285D01*
X62095357Y-179153428D01*
X62166785Y-179082000D01*
X62309642Y-179010571D01*
X62666785Y-179010571D01*
X62881071Y-179082000D01*
X63309642Y-179510571D02*
X63881071Y-179510571D01*
X63523928Y-179010571D02*
X63523928Y-180296285D01*
X63595357Y-180439142D01*
X63738214Y-180510571D01*
X63881071Y-180510571D01*
X65023928Y-180510571D02*
X65023928Y-179724857D01*
X64952500Y-179582000D01*
X64809642Y-179510571D01*
X64523928Y-179510571D01*
X64381071Y-179582000D01*
X65023928Y-180439142D02*
X64881071Y-180510571D01*
X64523928Y-180510571D01*
X64381071Y-180439142D01*
X64309642Y-180296285D01*
X64309642Y-180153428D01*
X64381071Y-180010571D01*
X64523928Y-179939142D01*
X64881071Y-179939142D01*
X65023928Y-179867714D01*
X65738214Y-180510571D02*
X65738214Y-179510571D01*
X65738214Y-179796285D02*
X65809642Y-179653428D01*
X65881071Y-179582000D01*
X66023928Y-179510571D01*
X66166785Y-179510571D01*
X66452500Y-179510571D02*
X67023928Y-179510571D01*
X66666785Y-179010571D02*
X66666785Y-180296285D01*
X66738214Y-180439142D01*
X66881071Y-180510571D01*
X67023928Y-180510571D01*
X66675000Y-163159285D02*
X66675000Y-163873571D01*
X66175000Y-162373571D02*
X66675000Y-163159285D01*
X67175000Y-162373571D01*
X73160000Y-155452071D02*
X74160000Y-156952071D01*
X74160000Y-155452071D02*
X73160000Y-156952071D01*
X73767142Y-170199857D02*
X73981428Y-170271285D01*
X74052857Y-170342714D01*
X74124285Y-170485571D01*
X74124285Y-170699857D01*
X74052857Y-170842714D01*
X73981428Y-170914142D01*
X73838571Y-170985571D01*
X73267142Y-170985571D01*
X73267142Y-169485571D01*
X73767142Y-169485571D01*
X73910000Y-169557000D01*
X73981428Y-169628428D01*
X74052857Y-169771285D01*
X74052857Y-169914142D01*
X73981428Y-170057000D01*
X73910000Y-170128428D01*
X73767142Y-170199857D01*
X73267142Y-170199857D01*
X80351357Y-163445000D02*
X81065642Y-163445000D01*
X80208500Y-163873571D02*
X80708500Y-162373571D01*
X81208500Y-163873571D01*
D11*
G04 #@! TO.C,SW9*
X83756500Y-170497500D02*
X77787500Y-170497500D01*
X77787500Y-170497500D02*
X77787500Y-164528500D01*
X77787500Y-164528500D02*
X83756500Y-164528500D01*
X83756500Y-164528500D02*
X83756500Y-170497500D01*
G04 #@! TO.C,U1*
X40995500Y-181719500D02*
X58775500Y-181719500D01*
X58775500Y-181719500D02*
X58775500Y-151239500D01*
X58775500Y-151239500D02*
X53695500Y-151239500D01*
X53695500Y-151239500D02*
X53695500Y-148699500D01*
X53695500Y-148699500D02*
X46075500Y-148699500D01*
X46075500Y-148699500D02*
X46075500Y-151239500D01*
X46075500Y-151239500D02*
X40995500Y-151239500D01*
X40995500Y-151239500D02*
X40995500Y-181719500D01*
G04 #@! TO.C,SW1*
X69659500Y-164592000D02*
X69659500Y-170561000D01*
X63690500Y-164592000D02*
X69659500Y-164592000D01*
X63690500Y-170561000D02*
X63690500Y-164592000D01*
X69659500Y-170561000D02*
X63690500Y-170561000D01*
G04 #@! TO.C,SW2*
X76581000Y-163639500D02*
X70612000Y-163639500D01*
X70612000Y-163639500D02*
X70612000Y-157670500D01*
X70612000Y-157670500D02*
X76581000Y-157670500D01*
X76581000Y-157670500D02*
X76581000Y-163639500D01*
G04 #@! TO.C,SW3*
X70675500Y-171640500D02*
X76644500Y-171640500D01*
X76644500Y-171640500D02*
X76644500Y-177609500D01*
X76644500Y-177609500D02*
X70675500Y-177609500D01*
X70675500Y-177609500D02*
X70675500Y-171640500D01*
G04 #@! TO.C,SW4*
X32194500Y-181356000D02*
X38163500Y-181356000D01*
X38163500Y-181356000D02*
X38163500Y-187325000D01*
X38163500Y-187325000D02*
X32194500Y-187325000D01*
X32194500Y-187325000D02*
X32194500Y-181356000D01*
G04 #@! TO.C,SW5*
X67437000Y-181292500D02*
X67437000Y-187261500D01*
X61468000Y-181292500D02*
X67437000Y-181292500D01*
X61468000Y-187261500D02*
X61468000Y-181292500D01*
X67437000Y-187261500D02*
X61468000Y-187261500D01*
G04 #@! TO.C,SW6*
X23876000Y-157797500D02*
X29845000Y-157797500D01*
X29845000Y-157797500D02*
X29845000Y-163766500D01*
X29845000Y-163766500D02*
X23876000Y-163766500D01*
X23876000Y-163766500D02*
X23876000Y-157797500D01*
G04 #@! TO.C,SW7*
X23876000Y-177863500D02*
X23876000Y-171894500D01*
X29845000Y-177863500D02*
X23876000Y-177863500D01*
X29845000Y-171894500D02*
X29845000Y-177863500D01*
X23876000Y-171894500D02*
X29845000Y-171894500D01*
G04 #@! TO.C,SW8*
X30797500Y-164655500D02*
X36766500Y-164655500D01*
X36766500Y-164655500D02*
X36766500Y-170624500D01*
X36766500Y-170624500D02*
X30797500Y-170624500D01*
X30797500Y-170624500D02*
X30797500Y-164655500D01*
G04 #@! TO.C,SW10*
X16827500Y-170688000D02*
X16827500Y-164719000D01*
X22796500Y-170688000D02*
X16827500Y-170688000D01*
X22796500Y-164719000D02*
X22796500Y-170688000D01*
X16827500Y-164719000D02*
X22796500Y-164719000D01*
G04 #@! TD*
M02*
