M48
METRIC,TZ
T1C0.400
T2C1.000
T3C1.100
T4C3.000
%
G90
G05
T1
X19876Y-160020
X48323Y-162814
X48705Y-184658
X80137Y-158814
T2
X78105Y-151892
X80645Y-151892
X20130Y-151892
X22670Y-151892
T3
X42265Y-152510
X42265Y-155050
X42265Y-157590
X42265Y-160130
X42265Y-162670
X42265Y-165209
X42265Y-167749
X42265Y-170290
X42265Y-172830
X42265Y-175370
X42265Y-177909
X42265Y-180449
X57505Y-152510
X57505Y-155050
X57505Y-157590
X57505Y-160130
X57505Y-162670
X57505Y-165209
X57505Y-167749
X57505Y-170290
X57505Y-172830
X57505Y-175370
X57505Y-177909
X57505Y-180449
T4
X29972Y-151701
X17526Y-186944
X70803Y-151701
X83248Y-186944
T0
M30
