G04 #@! TF.GenerationSoftware,KiCad,Pcbnew,5.0.2+dfsg1-1~bpo9+1*
G04 #@! TF.CreationDate,2018-12-22T15:32:15+00:00*
G04 #@! TF.ProjectId,arduino_controller,61726475-696e-46f5-9f63-6f6e74726f6c,rev?*
G04 #@! TF.SameCoordinates,Original*
G04 #@! TF.FileFunction,Copper,L1,Top*
G04 #@! TF.FilePolarity,Positive*
%FSLAX46Y46*%
G04 Gerber Fmt 4.6, Leading zero omitted, Abs format (unit mm)*
G04 Created by KiCad (PCBNEW 5.0.2+dfsg1-1~bpo9+1) date Sat 22 Dec 2018 15:32:15 GMT*
%MOMM*%
%LPD*%
G01*
G04 APERTURE LIST*
G04 #@! TA.AperFunction,SMDPad,CuDef*
%ADD10R,2.000000X1.500000*%
G04 #@! TD*
G04 #@! TA.AperFunction,ComponentPad*
%ADD11R,1.600000X1.600000*%
G04 #@! TD*
G04 #@! TA.AperFunction,ComponentPad*
%ADD12C,1.600000*%
G04 #@! TD*
G04 #@! TA.AperFunction,ComponentPad*
%ADD13C,3.500000*%
G04 #@! TD*
G04 #@! TA.AperFunction,ViaPad*
%ADD14C,0.800000*%
G04 #@! TD*
G04 #@! TA.AperFunction,Conductor*
%ADD15C,0.250000*%
G04 #@! TD*
G04 APERTURE END LIST*
D10*
G04 #@! TO.P,SW9,1*
G04 #@! TO.N,Net-(SW9-Pad1)*
X77787500Y-167513000D03*
G04 #@! TO.P,SW9,2*
G04 #@! TO.N,Net-(SW1-Pad2)*
X83756500Y-167513000D03*
G04 #@! TD*
D11*
G04 #@! TO.P,U1,1*
G04 #@! TO.N,Net-(U1-Pad1)*
X57505500Y-152509500D03*
D12*
G04 #@! TO.P,U1,2*
G04 #@! TO.N,Net-(U1-Pad2)*
X57505500Y-155049500D03*
G04 #@! TO.P,U1,3*
G04 #@! TO.N,Net-(U1-Pad3)*
X57505500Y-157589500D03*
G04 #@! TO.P,U1,4*
G04 #@! TO.N,Net-(U1-Pad4)*
X57505500Y-160129500D03*
G04 #@! TO.P,U1,5*
G04 #@! TO.N,Net-(SW2-Pad1)*
X57505500Y-162669500D03*
G04 #@! TO.P,U1,6*
G04 #@! TO.N,Net-(SW9-Pad1)*
X57505500Y-165209500D03*
G04 #@! TO.P,U1,7*
G04 #@! TO.N,Net-(SW3-Pad1)*
X57505500Y-167749500D03*
G04 #@! TO.P,U1,8*
G04 #@! TO.N,Net-(SW1-Pad1)*
X57505500Y-170289500D03*
G04 #@! TO.P,U1,9*
G04 #@! TO.N,Net-(SW4-Pad1)*
X57505500Y-172829500D03*
G04 #@! TO.P,U1,10*
G04 #@! TO.N,Net-(SW5-Pad1)*
X57505500Y-175369500D03*
G04 #@! TO.P,U1,11*
G04 #@! TO.N,Net-(SW6-Pad1)*
X57505500Y-177909500D03*
G04 #@! TO.P,U1,12*
G04 #@! TO.N,Net-(SW7-Pad1)*
X57505500Y-180449500D03*
G04 #@! TO.P,U1,13*
G04 #@! TO.N,Net-(SW10-Pad1)*
X42265500Y-180449500D03*
G04 #@! TO.P,U1,14*
G04 #@! TO.N,Net-(SW8-Pad1)*
X42265500Y-177909500D03*
G04 #@! TO.P,U1,15*
G04 #@! TO.N,Net-(SW11-Pad1)*
X42265500Y-175369500D03*
G04 #@! TO.P,U1,16*
G04 #@! TO.N,Net-(SW12-Pad1)*
X42265500Y-172829500D03*
G04 #@! TO.P,U1,17*
G04 #@! TO.N,Net-(U1-Pad17)*
X42265500Y-170289500D03*
G04 #@! TO.P,U1,18*
G04 #@! TO.N,Net-(U1-Pad18)*
X42265500Y-167749500D03*
G04 #@! TO.P,U1,19*
G04 #@! TO.N,Net-(U1-Pad19)*
X42265500Y-165209500D03*
G04 #@! TO.P,U1,20*
G04 #@! TO.N,Net-(U1-Pad20)*
X42265500Y-162669500D03*
G04 #@! TO.P,U1,21*
G04 #@! TO.N,Net-(U1-Pad21)*
X42265500Y-160129500D03*
G04 #@! TO.P,U1,22*
G04 #@! TO.N,Net-(U1-Pad22)*
X42265500Y-157589500D03*
G04 #@! TO.P,U1,23*
G04 #@! TO.N,Net-(SW1-Pad2)*
X42265500Y-155049500D03*
G04 #@! TO.P,U1,24*
G04 #@! TO.N,Net-(U1-Pad24)*
X42265500Y-152509500D03*
G04 #@! TD*
D10*
G04 #@! TO.P,SW1,2*
G04 #@! TO.N,Net-(SW1-Pad2)*
X69659500Y-167576500D03*
G04 #@! TO.P,SW1,1*
G04 #@! TO.N,Net-(SW1-Pad1)*
X63690500Y-167576500D03*
G04 #@! TD*
G04 #@! TO.P,SW2,1*
G04 #@! TO.N,Net-(SW2-Pad1)*
X70612000Y-160655000D03*
G04 #@! TO.P,SW2,2*
G04 #@! TO.N,Net-(SW1-Pad2)*
X76581000Y-160655000D03*
G04 #@! TD*
G04 #@! TO.P,SW3,1*
G04 #@! TO.N,Net-(SW3-Pad1)*
X76644500Y-174625000D03*
G04 #@! TO.P,SW3,2*
G04 #@! TO.N,Net-(SW1-Pad2)*
X70675500Y-174625000D03*
G04 #@! TD*
G04 #@! TO.P,SW4,1*
G04 #@! TO.N,Net-(SW4-Pad1)*
X38163500Y-184340500D03*
G04 #@! TO.P,SW4,2*
G04 #@! TO.N,Net-(SW1-Pad2)*
X32194500Y-184340500D03*
G04 #@! TD*
G04 #@! TO.P,SW5,2*
G04 #@! TO.N,Net-(SW1-Pad2)*
X67437000Y-184277000D03*
G04 #@! TO.P,SW5,1*
G04 #@! TO.N,Net-(SW5-Pad1)*
X61468000Y-184277000D03*
G04 #@! TD*
G04 #@! TO.P,SW6,1*
G04 #@! TO.N,Net-(SW6-Pad1)*
X29845000Y-160782000D03*
G04 #@! TO.P,SW6,2*
G04 #@! TO.N,Net-(SW1-Pad2)*
X23876000Y-160782000D03*
G04 #@! TD*
G04 #@! TO.P,SW7,2*
G04 #@! TO.N,Net-(SW1-Pad2)*
X23876000Y-174879000D03*
G04 #@! TO.P,SW7,1*
G04 #@! TO.N,Net-(SW7-Pad1)*
X29845000Y-174879000D03*
G04 #@! TD*
G04 #@! TO.P,SW8,1*
G04 #@! TO.N,Net-(SW8-Pad1)*
X36766500Y-167640000D03*
G04 #@! TO.P,SW8,2*
G04 #@! TO.N,Net-(SW1-Pad2)*
X30797500Y-167640000D03*
G04 #@! TD*
G04 #@! TO.P,SW10,2*
G04 #@! TO.N,Net-(SW1-Pad2)*
X16827500Y-167703500D03*
G04 #@! TO.P,SW10,1*
G04 #@! TO.N,Net-(SW10-Pad1)*
X22796500Y-167703500D03*
G04 #@! TD*
D13*
G04 #@! TO.P,U2,1*
G04 #@! TO.N,Net-(U2-Pad1)*
X29972000Y-151701500D03*
G04 #@! TD*
G04 #@! TO.P,U3,1*
G04 #@! TO.N,Net-(U3-Pad1)*
X17526000Y-186944000D03*
G04 #@! TD*
G04 #@! TO.P,U4,1*
G04 #@! TO.N,Net-(U4-Pad1)*
X70802500Y-151701500D03*
G04 #@! TD*
G04 #@! TO.P,U5,1*
G04 #@! TO.N,Net-(U5-Pad1)*
X83248500Y-186944000D03*
G04 #@! TD*
D12*
G04 #@! TO.P,SW11,2*
G04 #@! TO.N,Net-(SW1-Pad2)*
X22669500Y-151892000D03*
G04 #@! TO.P,SW11,1*
G04 #@! TO.N,Net-(SW11-Pad1)*
X20129500Y-151892000D03*
G04 #@! TD*
G04 #@! TO.P,SW12,1*
G04 #@! TO.N,Net-(SW12-Pad1)*
X78105000Y-151892000D03*
G04 #@! TO.P,SW12,2*
G04 #@! TO.N,Net-(SW1-Pad2)*
X80645000Y-151892000D03*
G04 #@! TD*
D14*
G04 #@! TO.N,Net-(SW1-Pad2)*
X19875500Y-160020000D03*
X80137000Y-158813500D03*
G04 #@! TO.N,Net-(SW4-Pad1)*
X48704500Y-184658000D03*
G04 #@! TO.N,Net-(SW12-Pad1)*
X48323500Y-162814000D03*
G04 #@! TD*
D15*
G04 #@! TO.N,Net-(SW1-Pad1)*
X60218500Y-167576500D02*
X57505500Y-170289500D01*
X63690500Y-167576500D02*
X60218500Y-167576500D01*
G04 #@! TO.N,Net-(SW1-Pad2)*
X20637500Y-160782000D02*
X23876000Y-160782000D01*
X19875500Y-160020000D02*
X20637500Y-160782000D01*
X16827500Y-163068000D02*
X16827500Y-167703500D01*
X19875500Y-160020000D02*
X16827500Y-163068000D01*
X19475501Y-160419999D02*
X19475501Y-161207501D01*
X19875500Y-160020000D02*
X19475501Y-160419999D01*
X25908000Y-167640000D02*
X30797500Y-167640000D01*
X23876000Y-173879000D02*
X20066000Y-170069000D01*
X23876000Y-174879000D02*
X23876000Y-173879000D01*
X20066000Y-170069000D02*
X20066000Y-161798000D01*
X20066000Y-161798000D02*
X25908000Y-167640000D01*
X19475501Y-161207501D02*
X20066000Y-161798000D01*
X30944500Y-184340500D02*
X25610500Y-179006500D01*
X32194500Y-184340500D02*
X30944500Y-184340500D01*
X25610500Y-179006500D02*
X23622000Y-179006500D01*
X20066000Y-175450500D02*
X20066000Y-170069000D01*
X23622000Y-179006500D02*
X20066000Y-175450500D01*
X22669500Y-151892000D02*
X20764500Y-149987000D01*
X20764500Y-149987000D02*
X18034000Y-149987000D01*
X18034000Y-149987000D02*
X16319500Y-151701500D01*
X16319500Y-156464000D02*
X19875500Y-160020000D01*
X16319500Y-151701500D02*
X16319500Y-156464000D01*
X78295500Y-160655000D02*
X80137000Y-158813500D01*
X76581000Y-160655000D02*
X78295500Y-160655000D01*
X80137000Y-159379185D02*
X80137000Y-158813500D01*
X82506500Y-167513000D02*
X80137000Y-165143500D01*
X83756500Y-167513000D02*
X82506500Y-167513000D01*
X70909500Y-167576500D02*
X73767000Y-170434000D01*
X69659500Y-167576500D02*
X70909500Y-167576500D01*
X73767000Y-170434000D02*
X77914500Y-170434000D01*
X80137000Y-168211500D02*
X80137000Y-164909500D01*
X77914500Y-170434000D02*
X80137000Y-168211500D01*
X80137000Y-164909500D02*
X80137000Y-159379185D01*
X80137000Y-165143500D02*
X80137000Y-164909500D01*
X71925500Y-174625000D02*
X74021000Y-176720500D01*
X70675500Y-174625000D02*
X71925500Y-174625000D01*
X74021000Y-176720500D02*
X78676500Y-176720500D01*
X80137000Y-175260000D02*
X80137000Y-168211500D01*
X78676500Y-176720500D02*
X80137000Y-175260000D01*
X67437000Y-184277000D02*
X75374500Y-184277000D01*
X80137000Y-179514500D02*
X80137000Y-175260000D01*
X75374500Y-184277000D02*
X80137000Y-179514500D01*
X80645000Y-158305500D02*
X80137000Y-158813500D01*
X80645000Y-151892000D02*
X80645000Y-158305500D01*
G04 #@! TO.N,Net-(SW2-Pad1)*
X59520000Y-160655000D02*
X57505500Y-162669500D01*
X70612000Y-160655000D02*
X59520000Y-160655000D01*
G04 #@! TO.N,Net-(SW9-Pad1)*
X76537500Y-167576500D02*
X73235500Y-164274500D01*
X77787500Y-167576500D02*
X76537500Y-167576500D01*
X58440500Y-164274500D02*
X57505500Y-165209500D01*
X73235500Y-164274500D02*
X58440500Y-164274500D01*
G04 #@! TO.N,Net-(SW3-Pad1)*
X75394500Y-174625000D02*
X76644500Y-174625000D01*
X69278500Y-172593000D02*
X73362500Y-172593000D01*
X67056000Y-170370500D02*
X69278500Y-172593000D01*
X67056000Y-166370000D02*
X67056000Y-170370500D01*
X58636870Y-167749500D02*
X60968870Y-165417500D01*
X60968870Y-165417500D02*
X66103500Y-165417500D01*
X73362500Y-172593000D02*
X75394500Y-174625000D01*
X57505500Y-167749500D02*
X58636870Y-167749500D01*
X66103500Y-165417500D02*
X67056000Y-166370000D01*
G04 #@! TO.N,Net-(SW4-Pad1)*
X39413500Y-184340500D02*
X40112000Y-185039000D01*
X38163500Y-184340500D02*
X39413500Y-184340500D01*
X48323500Y-185039000D02*
X48704500Y-184658000D01*
X40112000Y-185039000D02*
X48323500Y-185039000D01*
G04 #@! TO.N,Net-(SW5-Pad1)*
X61468000Y-179332000D02*
X61468000Y-184277000D01*
X57505500Y-175369500D02*
X61468000Y-179332000D01*
G04 #@! TO.N,Net-(SW6-Pad1)*
X31095000Y-160782000D02*
X31666500Y-161353500D01*
X29845000Y-160782000D02*
X31095000Y-160782000D01*
X42614502Y-161353500D02*
X54610000Y-173348998D01*
X31666500Y-161353500D02*
X42614502Y-161353500D01*
X54610000Y-175014000D02*
X57505500Y-177909500D01*
X54610000Y-173348998D02*
X54610000Y-175014000D01*
G04 #@! TO.N,Net-(SW7-Pad1)*
X31095000Y-174879000D02*
X39032500Y-182816500D01*
X29845000Y-174879000D02*
X31095000Y-174879000D01*
X55138500Y-182816500D02*
X57505500Y-180449500D01*
X39032500Y-182816500D02*
X55138500Y-182816500D01*
G04 #@! TO.N,Net-(SW10-Pad1)*
X24046500Y-167703500D02*
X28174000Y-171831000D01*
X22796500Y-167703500D02*
X24046500Y-167703500D01*
X33647000Y-171831000D02*
X42265500Y-180449500D01*
X28174000Y-171831000D02*
X33647000Y-171831000D01*
G04 #@! TO.N,Net-(SW8-Pad1)*
X36766500Y-172410500D02*
X42265500Y-177909500D01*
X36766500Y-167640000D02*
X36766500Y-172410500D01*
G04 #@! TO.N,Net-(SW11-Pad1)*
X42265500Y-175369500D02*
X38862000Y-171966000D01*
X38862000Y-171966000D02*
X38862000Y-166306500D01*
X38862000Y-166306500D02*
X35814000Y-163258500D01*
X35814000Y-163258500D02*
X28638500Y-163258500D01*
X28638500Y-163258500D02*
X26416000Y-161036000D01*
X26416000Y-158178500D02*
X20129500Y-151892000D01*
X26416000Y-161036000D02*
X26416000Y-158178500D01*
G04 #@! TO.N,Net-(SW12-Pad1)*
X78105000Y-151892000D02*
X73660000Y-156337000D01*
X73660000Y-156337000D02*
X66929000Y-156337000D01*
X66929000Y-156337000D02*
X60452000Y-149860000D01*
X60452000Y-149860000D02*
X55689500Y-149860000D01*
X48323500Y-157226000D02*
X48323500Y-162814000D01*
X55689500Y-149860000D02*
X48323500Y-157226000D01*
G04 #@! TD*
M02*
